<svg fill="#000000" width="500px" height="500px" viewBox="0 0 15 15" xmlns="http://www.w3.org/2000/svg"><path d="M14.375 6.875A0.625 0.625 0 0 1 13.75 7.5h-1.465l-1.715 3.995a0.63 0.63 0 0 1 -0.615 0.375 0.625 0.625 0 0 1 -0.56 -0.45l-1.86 -6.5 -1.93 7.73a0.625 0.625 0 0 1 -0.57 0.475H5a0.625 0.625 0 0 1 -0.585 -0.405L2.695 8.125H1.25a0.625 0.625 0 0 1 0 -1.25h1.875a0.625 0.625 0 0 1 0.585 0.405l1.17 3.12 2.015 -8.05A0.625 0.625 0 0 1 8.1 2.33l2.02 7.06 1.18 -2.765a0.625 0.625 0 0 1 0.575 -0.378h1.875a0.625 0.625 0 0 1 0.625 0.625Z"/></svg>