<?xml version="1.0" standalone="no"?>
<!DOCTYPE svg PUBLIC "-//W3C//DTD SVG 20010904//EN"
 "http://www.w3.org/TR/2001/REC-SVG-20010904/DTD/svg10.dtd">
<svg version="1.0" xmlns="http://www.w3.org/2000/svg"
 width="807.000000pt" height="801.000000pt" viewBox="0 0 807.000000 801.000000"
 preserveAspectRatio="xMidYMid meet">

<g transform="translate(0.000000,801.000000) scale(0.100000,-0.100000)"
fill="#3389AA" opacity="0.31">
<path d="M3575 7995 c-106 -12 -247 -35 -385 -63 -159 -32 -473 -131 -660
-206 -131 -54 -392 -183 -494 -244 -37 -23 -70 -42 -71 -42 -10 0 -260 -172
-338 -232 -317 -246 -542 -474 -794 -803 -177 -232 -387 -610 -502 -905 -309
-788 -363 -1624 -160 -2445 30 -119 90 -319 100 -329 5 -6 9 -16 9 -23 0 -23
91 -247 116 -285 13 -21 24 -40 24 -43 0 -9 40 -98 88 -195 177 -359 490 -772
807 -1064 135 -124 307 -266 322 -266 5 0 18 -10 29 -21 10 -12 60 -50 109
-84 436 -303 970 -530 1490 -631 175 -33 299 -49 558 -70 189 -15 238 -16 370
-5 266 21 461 42 492 51 17 5 64 14 105 20 41 7 90 17 109 22 34 11 75 44 63
51 -4 2 -1 2 6 0 8 -1 23 -3 35 -4 14 0 8 -5 -18 -14 -22 -7 -33 -13 -24 -14
23 -1 162 34 185 47 27 16 3 14 -46 -3 -57 -20 -73 -19 -30 3 l35 17 -65 6
c-36 3 -58 7 -50 8 8 2 18 3 23 2 4 0 8 405 8 901 1 497 2 914 4 928 1 14 3
33 3 43 1 10 7 15 12 12 7 -4 10 -330 10 -946 l0 -939 25 0 25 0 0 1004 c0
696 -3 1005 -11 1008 -5 2 15 19 45 38 31 19 56 39 56 43 0 5 5 5 10 2 6 -3
27 10 48 29 20 20 42 36 48 36 7 0 15 7 18 15 3 9 -13 2 -40 -17 -26 -18 -55
-38 -65 -44 -10 -6 -27 -18 -36 -26 -10 -8 -33 -20 -50 -28 -18 -7 -33 -16
-33 -21 0 -5 -15 -16 -32 -24 -20 -9 -23 -12 -9 -9 16 4 21 3 16 -6 -4 -6 -17
-10 -28 -9 -12 2 -51 -11 -87 -28 -310 -147 -617 -211 -965 -200 -302 9 -575
76 -837 208 -492 246 -865 678 -1034 1197 -175 538 -119 1127 154 1617 48 86
154 250 171 265 4 3 38 43 76 89 183 220 495 443 777 555 243 97 498 146 763
146 310 0 610 -68 895 -203 36 -17 75 -30 87 -28 11 1 24 -3 28 -9 5 -9 0 -10
-16 -6 -14 3 -11 0 9 -9 17 -8 32 -19 32 -24 0 -5 15 -14 33 -21 17 -8 40 -20
50 -28 9 -8 26 -20 36 -26 10 -6 39 -26 65 -44 27 -19 43 -26 40 -17 -3 8 -11
15 -18 15 -6 0 -28 16 -48 36 -21 19 -42 32 -48 29 -5 -3 -10 -3 -10 2 0 4
-25 24 -56 43 -30 19 -50 36 -45 38 8 3 11 312 11 1008 l0 1004 -25 0 -25 0 0
-939 c0 -616 -3 -942 -10 -946 -5 -3 -11 2 -12 12 0 10 -2 29 -3 43 -2 14 -3
431 -4 928 0 497 -5 901 -9 898 -4 -2 -14 0 -22 5 -10 7 16 8 80 5 64 -3 83
-1 60 4 -19 5 -49 16 -65 25 l-30 16 35 -6 c19 -4 39 -11 45 -16 5 -5 18 -9
30 -9 19 1 19 1 1 12 -23 13 -162 48 -185 47 -9 -1 2 -7 24 -14 26 -9 32 -14
18 -14 -12 -1 -27 -3 -35 -4 -7 -2 -10 -2 -6 0 9 6 -24 38 -48 47 -25 10 -214
45 -339 63 -145 21 -838 27 -1000 8z m902 -21 c-3 -3 -12 -4 -19 -1 -8 3 -5 6
6 6 11 1 17 -2 13 -5z m545 -116 c-9 -9 -15 -9 -24 0 -9 9 -7 12 12 12 19 0
21 -3 12 -12z m-175 -1850 c-3 -8 -6 -5 -6 6 -1 11 2 17 5 13 3 -3 4 -12 1
-19z m40 -84 c-3 -3 -12 -4 -19 -1 -8 3 -5 6 6 6 11 1 17 -2 13 -5z m159 -6
c4 -6 -1 -17 -12 -25 -10 -8 -19 -18 -19 -23 0 -17 -12 -20 -25 -5 -8 10 -9
15 -1 15 6 0 20 8 31 17 19 16 19 18 3 25 -16 6 -16 7 -1 7 9 1 20 -4 24 -11z
m-116 -2 c0 -11 -19 -15 -25 -6 -3 5 1 10 9 10 9 0 16 -2 16 -4z m40 -15 c0
-5 -7 -11 -15 -15 -15 -5 -20 5 -8 17 9 10 23 9 23 -2z m45 -3711 c0 -5 9 -15
19 -23 21 -16 14 -37 -12 -36 -15 0 -15 1 1 7 16 7 16 9 -3 25 -11 9 -25 17
-31 17 -8 0 -7 5 1 15 13 15 25 12 25 -5z m-45 -32 c0 -13 -23 -5 -28 10 -2 7
2 10 12 6 9 -3 16 -11 16 -16z m-45 -8 c3 -5 -1 -10 -10 -10 -9 0 -13 5 -10
10 3 6 8 10 10 10 2 0 7 -4 10 -10z m-38 -16 c-3 -3 -12 -4 -19 -1 -8 3 -5 6
6 6 11 1 17 -2 13 -5z m-40 -96 c-3 -8 -6 -5 -6 6 -1 11 2 17 5 13 3 -3 4 -12
1 -19z m178 -1838 c3 -5 -3 -10 -15 -10 -12 0 -18 5 -15 10 3 6 10 10 15 10 5
0 12 -4 15 -10z"/>
<path d="M5190 7841 c53 -17 85 -22 75 -13 -5 6 -30 13 -55 16 -30 4 -37 3
-20 -3z"/>
<path d="M5295 7810 c3 -5 8 -10 11 -10 2 0 4 5 4 10 0 6 -5 10 -11 10 -5 0
-7 -4 -4 -10z"/>
<path d="M5250 7790 c0 -5 7 -10 16 -10 8 0 12 5 9 10 -3 6 -10 10 -16 10 -5
0 -9 -4 -9 -10z"/>
<path d="M5345 7789 c-4 -5 2 -9 12 -9 10 0 29 -3 43 -7 36 -9 19 6 -19 17
-18 5 -33 5 -36 -1z"/>
<path d="M5455 7752 c6 -5 24 -12 40 -16 34 -7 15 7 -25 19 -16 5 -22 4 -15
-3z"/>
<path d="M3959 5981 c-46 -9 -149 -50 -170 -68 -8 -7 -19 -13 -23 -13 -13 0
-99 -73 -154 -130 -117 -123 -225 -301 -307 -507 -57 -142 -78 -210 -71 -229
3 -8 17 -14 31 -14 14 0 45 -4 68 -9 152 -34 294 -50 525 -59 l152 -7 0 523
c0 287 -3 521 -7 521 -5 -1 -24 -4 -44 -8z"/>
<path d="M4090 5468 l0 -523 67 2 c150 6 383 25 458 39 44 8 107 19 140 24
122 21 117 18 110 53 -4 18 -15 52 -25 77 -11 25 -31 77 -45 115 -86 224 -210
422 -348 551 -105 99 -201 151 -329 178 l-28 6 0 -522z m717 -310 c-3 -8 -6
-5 -6 6 -1 11 2 17 5 13 3 -3 4 -12 1 -19z"/>
<path d="M3603 5939 c-89 -17 -322 -102 -428 -156 -153 -77 -311 -185 -435
-296 -112 -100 -223 -223 -217 -240 8 -24 610 -213 622 -195 1 2 19 55 39 118
39 117 138 333 197 431 73 119 175 240 262 310 53 43 48 46 -40 28z"/>
<path d="M4517 5854 c55 -55 123 -130 152 -169 70 -95 201 -364 248 -508 l38
-118 40 5 c22 3 65 13 95 23 47 16 51 18 27 21 -16 2 -34 -1 -40 -6 -7 -6 -32
-12 -57 -15 -25 -2 -36 -2 -25 0 11 3 25 8 30 13 6 4 30 11 54 15 28 5 39 10
31 15 -10 6 -13 44 -11 154 l2 146 -26 0 c-20 0 -25 -5 -25 -25 0 -14 -4 -25
-9 -25 -11 0 -21 76 -21 167 0 66 2 75 20 80 11 3 17 9 14 14 -3 5 3 6 13 2
14 -5 13 -1 -6 20 -14 15 -22 27 -18 27 15 0 76 -43 72 -50 -3 -4 3 -6 14 -3
11 3 28 -5 42 -19 13 -13 36 -31 51 -41 15 -9 26 -23 24 -30 -1 -6 -1 -9 1 -5
3 5 14 3 25 -3 41 -22 24 -2 -40 46 -95 72 -183 128 -189 121 -8 -8 -44 14
-38 24 3 4 -7 13 -23 19 -15 5 -38 17 -52 25 -38 24 -178 86 -193 86 -7 0 -17
4 -22 9 -12 10 -203 67 -259 77 l-38 7 99 -99z m348 -64 c3 -5 1 -10 -4 -10
-6 0 -11 5 -11 10 0 6 2 10 4 10 3 0 8 -4 11 -10z m80 -41 c11 -17 -1 -21 -15
-4 -8 9 -8 15 -2 15 6 0 14 -5 17 -11z m-136 -249 c11 -24 11 -24 -3 -6 -9 11
-16 24 -16 30 0 12 5 7 19 -24z m240 -226 c0 -83 -2 -93 -14 -78 -7 11 -12 22
-9 25 9 15 13 89 5 94 -5 3 -8 13 -6 23 2 9 4 20 4 25 1 4 5 7 11 7 6 0 9 -40
9 -96z m-145 21 c5 -22 4 -26 -4 -15 -5 8 -10 24 -10 34 0 26 6 18 14 -19z
m35 -10 c0 -5 -6 -1 -14 9 -8 11 -15 24 -15 30 0 5 7 1 15 -10 8 -10 14 -23
14 -29z m-2 -87 c-3 -8 -6 -5 -6 6 -1 11 2 17 5 13 3 -3 4 -12 1 -19z m148
-18 c3 -6 -1 -7 -9 -4 -18 7 -21 14 -7 14 6 0 13 -4 16 -10z m-138 -32 c-3 -7
-5 -2 -5 12 0 14 2 19 5 13 2 -7 2 -19 0 -25z m103 -2 c0 -8 6 -16 13 -19 6
-3 3 -5 -8 -5 -11 0 -31 -3 -45 -6 -21 -5 -22 -5 -5 3 11 5 16 10 11 10 -11 1
13 31 25 31 5 0 9 -6 9 -14z"/>
<path d="M5111 5817 c2 -1 14 -11 27 -21 12 -11 22 -16 22 -13 0 10 -31 37
-42 37 -6 0 -9 -1 -7 -3z"/>
<path d="M5160 5816 c0 -2 15 -6 34 -8 19 -2 32 0 30 4 -5 8 -64 12 -64 4z"/>
<path d="M5196 5769 c20 -23 24 -23 24 -5 0 7 -9 16 -21 19 -20 5 -20 5 -3
-14z"/>
<path d="M5240 5741 c0 -6 4 -13 10 -16 6 -3 7 1 4 9 -7 18 -14 21 -14 7z"/>
<path d="M5050 5604 c-13 -34 -14 -32 18 -47 15 -7 42 -11 61 -8 l34 6 -26 14
c-15 8 -34 25 -42 38 -20 30 -33 29 -45 -3z"/>
<path d="M5380 5593 c0 -7 15 -22 33 -34 23 -16 27 -17 12 -3 -11 10 -26 25
-32 33 -8 9 -13 10 -13 4z"/>
<path d="M5170 5570 c0 -5 6 -10 14 -10 8 0 16 -6 19 -12 2 -7 8 -10 12 -5 5
4 0 14 -11 22 -23 17 -34 19 -34 5z"/>
<path d="M5046 5507 c-7 -28 3 -44 30 -50 22 -4 24 -1 24 34 0 35 -2 39 -24
37 -15 -1 -27 -10 -30 -21z"/>
<path d="M5305 5508 c6 -15 65 -51 65 -39 0 7 -55 51 -64 51 -3 0 -3 -6 -1
-12z"/>
<path d="M5381 5454 c0 -5 4 -18 8 -28 6 -17 8 -17 14 -3 3 8 -1 21 -9 27 -8
7 -14 9 -13 4z"/>
<path d="M5360 5396 c0 -8 4 -17 9 -20 5 -4 7 3 4 14 -6 23 -13 26 -13 6z"/>
<path d="M5495 5330 c3 -5 8 -10 11 -10 2 0 4 5 4 10 0 6 -5 10 -11 10 -5 0
-7 -4 -4 -10z"/>
<path d="M5278 5183 c7 -3 16 -2 19 1 4 3 -2 6 -13 5 -11 0 -14 -3 -6 -6z"/>
<path d="M5360 5180 c-13 -9 -13 -10 0 -9 8 0 24 4 35 9 l20 9 -20 0 c-11 0
-27 -4 -35 -9z"/>
<path d="M2395 5083 c-177 -288 -283 -605 -302 -907 l-6 -106 106 0 107 0 0
280 c0 154 1 281 3 282 1 1 170 5 376 8 l373 5 30 140 c41 196 41 187 -7 198
-109 25 -346 99 -505 157 -47 18 -92 34 -100 36 -10 3 -34 -27 -75 -93z"/>
<path d="M5300 5160 c-8 -5 -10 -10 -5 -10 6 0 17 5 25 10 8 5 11 10 5 10 -5
0 -17 -5 -25 -10z"/>
<path d="M5656 5127 c3 -10 9 -15 12 -12 3 3 0 11 -7 18 -10 9 -11 8 -5 -6z"/>
<path d="M5170 5120 c-20 -6 -21 -8 -5 -8 11 0 31 4 45 8 20 6 21 8 5 8 -11 0
-31 -4 -45 -8z"/>
<path d="M5400 5088 c-19 -6 -30 -12 -24 -15 7 -2 27 3 45 11 39 17 29 19 -21
4z"/>
<path d="M5478 5083 c7 -3 16 -2 19 1 4 3 -2 6 -13 5 -11 0 -14 -3 -6 -6z"/>
<path d="M5696 5067 c3 -10 9 -15 12 -12 3 3 0 11 -7 18 -10 9 -11 8 -5 -6z"/>
<path d="M5337 5064 c-4 -4 -30 -13 -59 -20 -51 -14 -51 -14 -9 -9 40 5 111
34 85 35 -6 0 -14 -3 -17 -6z"/>
<path d="M5190 5020 c-8 -5 -40 -14 -70 -20 -116 -24 -130 -29 -130 -53 0 -12
7 -44 16 -72 8 -27 21 -88 28 -135 l12 -85 140 -1 139 0 -130 6 c-71 3 -123 7
-115 8 13 2 13 4 1 11 -11 7 -7 10 15 14 l29 4 -34 8 c-32 8 -33 9 -13 16 19
7 22 16 22 59 0 41 -3 50 -18 50 -10 0 -24 6 -31 13 -10 10 -11 4 -5 -28 3
-22 3 -37 0 -33 -4 3 -9 39 -10 80 -2 48 0 66 6 53 8 -19 8 -18 4 2 -4 21 -1
22 38 19 22 -2 32 -1 21 1 -11 3 -25 9 -32 15 -12 9 -50 -6 -65 -27 -4 -5 -8
0 -8 13 0 15 6 22 20 22 10 0 29 4 42 9 13 5 51 17 86 27 35 9 65 21 68 26 7
11 -7 10 -26 -2z"/>
<path d="M5170 4980 c-12 -8 -12 -10 5 -10 11 0 27 5 35 10 12 8 12 10 -5 10
-11 0 -27 -5 -35 -10z"/>
<path d="M5098 4963 c7 -3 16 -2 19 1 4 3 -2 6 -13 5 -11 0 -14 -3 -6 -6z"/>
<path d="M5193 4950 c-13 -5 -23 -12 -23 -15 0 -10 27 -5 46 10 21 16 11 18
-23 5z"/>
<path d="M3191 4913 c-22 -82 -51 -224 -51 -248 l0 -25 435 0 435 0 0 108 0
109 -113 6 c-183 11 -402 36 -546 62 -74 14 -138 25 -142 25 -5 0 -13 -17 -18
-37z"/>
<path d="M4791 4929 c-142 -29 -294 -47 -508 -61 l-193 -12 0 -108 0 -108 433
6 c237 3 434 8 436 10 2 1 -11 66 -28 144 -17 77 -31 143 -31 145 0 6 2 7
-109 -16z m109 -55 c0 -8 -5 -12 -10 -9 -6 4 -8 11 -5 16 9 14 15 11 15 -7z
m-20 -34 c0 -5 -4 -10 -10 -10 -5 0 -10 5 -10 10 0 6 5 10 10 10 6 0 10 -4 10
-10z m27 -52 c-2 -13 -4 -5 -4 17 -1 22 1 32 4 23 2 -10 2 -28 0 -40z"/>
<path d="M5057 4893 c-4 -3 -7 -15 -7 -25 0 -21 34 -25 54 -6 11 10 8 15 -12
25 -28 15 -27 15 -35 6z"/>
<path d="M5173 4673 c15 -2 39 -2 55 0 15 2 2 4 -28 4 -30 0 -43 -2 -27 -4z"/>
<path d="M2375 4548 c-3 -7 -4 -245 -3 -528 l3 -515 1220 -2 c671 -2 1339 1
1485 6 225 7 243 8 120 10 -92 2 -138 6 -125 11 17 7 17 9 3 9 -25 1 -23 37 2
44 28 7 25 24 -5 29 -24 5 -25 3 -25 -39 0 -31 -4 -43 -12 -40 -8 2 -13 21
-13 43 -1 22 -4 44 -8 50 -3 6 0 20 8 30 12 16 16 17 24 4 5 -8 7 -18 5 -22
-3 -4 6 -8 19 -8 23 0 25 4 30 78 3 42 8 102 11 132 3 37 2 47 -4 30 -4 -14
-8 -43 -9 -66 -1 -27 -8 -47 -21 -59 -24 -21 -24 -18 -6 26 8 19 17 59 21 89
4 30 12 66 17 80 13 32 38 159 37 185 -1 20 -9 -12 -64 -250 -15 -66 -31 -124
-35 -129 -5 -4 -32 -8 -62 -8 -99 1 -97 0 -91 23 5 17 2 19 -21 13 -16 -4 -26
-2 -26 5 0 6 9 11 21 11 15 0 19 5 15 15 -3 8 -13 52 -22 98 -9 45 -20 87 -24
92 -4 6 -13 41 -21 79 l-13 68 -23 -88 c-13 -49 -36 -138 -51 -199 l-28 -110
-76 -3 -76 -3 -5 28 c-3 15 -17 75 -30 133 -14 58 -36 155 -50 215 -39 173
-40 174 -65 69 -12 -49 -40 -169 -64 -266 l-43 -178 -71 0 c-70 0 -72 1 -77
28 -12 61 -92 362 -97 362 -3 0 -20 -62 -39 -138 -19 -75 -42 -162 -51 -192
l-17 -55 -70 -3 -70 -3 -22 98 c-13 54 -37 157 -53 228 -17 72 -36 150 -43
175 l-12 45 -11 -40 c-7 -22 -28 -107 -47 -190 -20 -82 -45 -187 -57 -232
l-21 -83 -66 0 -66 0 -24 88 c-12 48 -31 119 -42 157 -10 39 -24 90 -30 115
l-11 45 -45 -165 c-24 -91 -48 -182 -54 -202 l-10 -38 -68 0 -68 0 -12 43 c-6
23 -29 121 -51 217 -22 96 -47 201 -55 232 -23 89 -24 88 49 88 l63 0 17 -82
c42 -196 60 -268 67 -261 7 8 44 143 76 281 l15 62 77 0 77 0 44 -180 c23
-100 45 -178 48 -176 2 3 18 67 33 143 16 75 34 154 40 175 l10 38 124 0 124
0 10 -37 c10 -37 46 -206 58 -271 3 -18 9 -34 12 -37 7 -3 57 179 83 298 l11
47 79 0 c54 0 80 -4 82 -12 2 -7 21 -86 42 -175 22 -90 41 -163 45 -163 3 0
18 62 33 138 15 75 32 154 38 175 l11 37 128 0 128 0 11 -57 c12 -60 59 -271
64 -288 2 -8 36 120 73 275 9 36 17 67 19 68 4 5 153 6 158 1 6 -8 56 -215 56
-234 0 -17 2 -18 11 -5 8 12 9 10 4 -7 -3 -12 0 -41 7 -65 l12 -42 8 34 c5 19
19 87 32 150 13 63 27 125 31 138 5 13 3 22 -4 22 -6 0 -13 -12 -16 -27 -3
-16 -10 -42 -15 -59 -6 -17 -10 -40 -10 -52 0 -12 -4 -22 -10 -22 -5 0 -10 11
-10 24 0 14 5 28 10 31 6 3 10 22 10 42 0 20 9 51 21 69 17 28 19 41 12 76
-13 61 -10 130 5 135 8 3 12 -9 12 -40 0 -42 1 -44 25 -39 30 5 33 22 5 29
-25 7 -27 43 -2 44 14 0 14 2 -3 9 -13 5 33 10 125 11 l145 3 -210 6 c-115 4
-783 8 -1483 9 -1010 1 -1274 -2 -1277 -11z m2622 -130 c-3 -8 -6 -5 -6 6 -1
11 2 17 5 13 3 -3 4 -12 1 -19z m-57 -104 c0 -8 -5 -12 -10 -9 -6 4 -8 11 -5
16 9 14 15 11 15 -7z m56 -6 c-3 -13 -6 -34 -6 -47 0 -18 -3 -22 -11 -14 -13
13 -2 83 13 83 6 0 8 -10 4 -22z m-66 -28 c0 -5 -4 -10 -10 -10 -5 0 -10 5
-10 10 0 6 5 10 10 10 6 0 10 -4 10 -10z m22 -32 c-7 -7 -12 -8 -12 -2 0 6 3
14 7 17 3 4 9 5 12 2 2 -3 -1 -11 -7 -17z m-3 -68 c0 -9 -4 -8 -9 5 -5 11 -9
27 -9 35 0 9 4 8 9 -5 5 -11 9 -27 9 -35z m38 -87 c-3 -10 -5 -4 -5 12 0 17 2
24 5 18 2 -7 2 -21 0 -30z"/>
<path d="M5048 4372 c-3 -47 -2 -49 25 -49 26 0 28 2 26 43 -2 30 -6 41 -16
37 -7 -3 -13 0 -13 6 0 6 -4 11 -9 11 -5 0 -11 -22 -13 -48z"/>
<path d="M5110 4339 c0 -12 25 -22 41 -17 6 2 0 9 -15 16 -16 7 -26 8 -26 1z"/>
<path d="M5191 4303 c-10 -27 -30 -102 -34 -132 -1 -8 3 -15 8 -17 6 -2 11 14
12 36 0 22 4 48 9 58 4 9 8 22 9 28 2 6 6 21 10 33 9 31 -1 26 -14 -6z"/>
<path d="M5216 4273 c-6 -14 -5 -15 5 -6 7 7 10 15 7 18 -3 3 -9 -2 -12 -12z"/>
<path d="M5236 4255 c-3 -8 -1 -15 4 -15 6 0 10 7 10 15 0 8 -2 15 -4 15 -2 0
-6 -7 -10 -15z"/>
<path d="M5194 4215 c-1 -14 2 -25 7 -25 5 0 9 11 9 25 0 33 -15 33 -16 0z"/>
<path d="M5226 4171 c-4 -7 -5 -15 -2 -18 9 -9 19 4 14 18 -4 11 -6 11 -12 0z"/>
<path d="M5142 3985 c0 -16 2 -22 5 -12 2 9 2 23 0 30 -3 6 -5 -1 -5 -18z"/>
<path d="M2094 3883 c8 -135 53 -356 101 -493 54 -156 146 -337 260 -507 0 -1
70 22 155 53 141 51 446 144 474 144 36 1 37 15 7 151 -16 74 -31 145 -33 159
l-3 25 -375 5 c-206 3 -376 7 -377 8 -2 1 -3 128 -3 282 l0 280 -107 0 -106 0
7 -107z"/>
<path d="M5126 3942 c-2 -4 -1 -14 5 -22 7 -12 9 -10 9 8 0 23 -5 28 -14 14z"/>
<path d="M3140 3395 c0 -24 29 -166 51 -248 11 -43 -7 -42 182 -6 115 22 470
59 568 59 l69 0 0 109 0 109 -435 2 -435 1 0 -26z"/>
<path d="M4090 3310 l0 -110 81 0 c119 0 474 -37 608 -64 64 -13 117 -22 119
-21 3 3 36 151 48 215 2 14 7 39 10 55 l5 30 -435 2 -436 2 0 -109z m810 -87
c-11 -17 -11 -17 -6 0 3 10 7 31 7 45 l2 27 4 -27 c2 -15 -1 -35 -7 -45z
m-177 -50 c-7 -2 -21 -2 -30 0 -10 3 -4 5 12 5 17 0 24 -2 18 -5z"/>
<path d="M5046 3398 c-2 -7 -9 -49 -15 -93 -6 -44 -18 -98 -26 -120 -8 -22
-14 -53 -13 -70 0 -16 2 -22 5 -12 5 18 43 24 43 7 0 -5 -3 -9 -7 -7 -5 1 -9
-2 -11 -8 -2 -5 20 -16 50 -22 29 -7 74 -19 100 -28 46 -15 78 -12 78 7 0 7
-5 7 -13 0 -9 -8 -24 -7 -52 3 l-40 14 45 2 45 2 -45 6 c-50 7 -140 42 -140
54 0 4 11 12 25 17 14 5 25 15 25 21 0 6 6 9 13 6 8 -3 14 1 14 9 0 8 -6 13
-13 10 -7 -3 -15 2 -18 11 -4 8 -13 13 -21 9 -8 -3 -17 -1 -20 4 -4 6 5 10 19
10 24 0 26 3 26 50 0 43 -3 52 -22 59 -20 7 -19 8 13 16 l34 8 -29 4 c-22 4
-26 7 -15 14 12 7 12 9 -1 11 -8 1 44 5 115 8 l130 6 -138 2 c-103 1 -139 -1
-141 -10z m-1 -158 c-9 -41 -17 -33 -9 9 4 17 9 30 11 27 3 -2 2 -19 -2 -36z
m-5 -98 c0 -15 -2 -15 -10 -2 -13 20 -13 33 0 25 6 -3 10 -14 10 -23z m95 -63
c13 -6 5 -6 -20 -3 -22 4 -47 10 -55 15 -18 10 46 0 75 -12z"/>
<path d="M5173 3383 c15 -2 39 -2 55 0 15 2 2 4 -28 4 -30 0 -43 -2 -27 -4z"/>
<path d="M5796 3173 c-6 -14 -5 -15 5 -6 7 7 10 15 7 18 -3 3 -9 -2 -12 -12z"/>
<path d="M5085 3130 c-4 -7 65 -23 72 -16 2 1 -13 7 -32 13 -19 6 -37 8 -40 3z"/>
<path d="M3845 3113 c-193 -11 -528 -54 -612 -78 -15 -5 7 -78 72 -239 114
-283 273 -507 441 -621 64 -45 167 -89 227 -98 l37 -6 0 525 0 524 -52 -2
c-29 -1 -80 -3 -113 -5z"/>
<path d="M4090 2596 l0 -525 33 5 c51 9 137 43 194 75 107 61 269 239 348 381
101 183 220 479 199 497 -5 4 -47 13 -94 20 -47 7 -98 16 -115 21 -32 10 -282
34 -457 45 l-108 7 0 -526z m717 292 c-3 -8 -6 -5 -6 6 -1 11 2 17 5 13 3 -3
4 -12 1 -19z"/>
<path d="M5195 3100 c-3 -5 1 -10 9 -10 9 0 16 5 16 10 0 6 -4 10 -9 10 -6 0
-13 -4 -16 -10z"/>
<path d="M5248 3023 c6 -2 18 -2 25 0 6 3 1 5 -13 5 -14 0 -19 -2 -12 -5z"/>
<path d="M5298 3013 c7 -3 16 -2 19 1 4 3 -2 6 -13 5 -11 0 -14 -3 -6 -6z"/>
<path d="M3095 3003 c-162 -35 -566 -170 -573 -191 -6 -18 134 -168 243 -261
245 -211 550 -366 845 -429 l95 -21 -30 22 c-90 65 -216 209 -294 336 -60 98
-159 315 -198 433 -39 120 -40 122 -88 111z"/>
<path d="M4951 2999 c1 -8 -1 -21 -4 -29 -3 -8 -10 -31 -16 -50 -21 -74 -65
-180 -126 -305 -97 -198 -146 -268 -287 -408 l-98 -98 37 6 c54 9 246 66 257
76 6 5 16 9 23 9 30 0 274 120 267 131 -6 10 31 31 39 23 8 -8 167 99 256 173
2 1 0 3 -6 3 -11 0 -77 -48 -110 -81 l-21 -22 -5 24 c-4 21 -4 21 -6 -5 -1
-23 -5 -27 -21 -23 -11 3 -18 1 -15 -3 4 -7 -57 -50 -72 -50 -4 0 4 12 18 27
19 21 20 25 6 20 -10 -4 -16 -3 -13 2 3 5 -3 11 -14 14 -18 5 -20 14 -20 80 0
91 10 167 21 167 5 0 9 -11 9 -25 0 -20 5 -25 25 -25 l25 0 0 115 c0 103 -2
115 -17 115 -17 1 -17 1 0 11 9 5 17 21 17 34 0 17 6 25 18 26 11 1 9 4 -8 9
-25 8 -25 8 5 10 l30 1 -40 18 c-22 10 -59 21 -82 24 -23 4 -49 10 -58 13 -11
5 -16 2 -14 -7z m114 -29 c13 -6 2 -7 -30 -3 -27 3 -52 7 -54 9 -9 8 65 2 84
-6z m-18 -26 c-3 -3 -12 -4 -19 -1 -8 3 -5 6 6 6 11 1 17 -2 13 -5z m3 -41 c0
-20 3 -24 9 -14 5 7 14 10 20 7 8 -5 4 -13 -10 -25 -19 -15 -22 -27 -21 -99 0
-45 -4 -82 -9 -82 -9 0 -12 12 -11 45 0 11 1 34 2 50 0 17 -1 56 -3 88 -3 43
-1 57 9 57 9 0 14 -11 14 -27z m-103 -20 c-3 -10 -5 -4 -5 12 0 17 2 24 5 18
2 -7 2 -21 0 -30z m-11 -49 c-4 -9 -9 -15 -11 -12 -3 3 -3 13 1 22 4 9 9 15
11 12 3 -3 3 -13 -1 -22z m-32 -68 c-3 -15 -8 -25 -11 -23 -2 3 -1 17 3 31 3
15 8 25 11 23 2 -3 1 -17 -3 -31z m22 -18 c-18 -26 -22 -17 -5 14 6 11 13 17
16 15 3 -3 -2 -16 -11 -29z m-89 -140 c-3 -8 -6 -5 -6 6 -1 11 2 17 5 13 3 -3
4 -12 1 -19z m-31 -60 c-18 -26 -22 -17 -5 14 6 11 13 17 16 15 3 -3 -2 -16
-11 -29z m35 -5 c-12 -20 -14 -14 -5 12 4 9 9 14 11 11 3 -2 0 -13 -6 -23z
m134 -213 c3 -5 1 -10 -4 -10 -6 0 -11 5 -11 10 0 6 2 10 4 10 3 0 8 -4 11
-10z m-25 -20 c0 -5 -2 -10 -4 -10 -3 0 -8 5 -11 10 -3 6 -1 10 4 10 6 0 11
-4 11 -10z m-45 -20 c-3 -5 -11 -10 -16 -10 -6 0 -7 5 -4 10 3 6 11 10 16 10
6 0 7 -4 4 -10z"/>
<path d="M5347 2999 c7 -7 15 -10 18 -7 3 3 -2 9 -12 12 -14 6 -15 5 -6 -5z"/>
<path d="M5696 2993 c-6 -14 -5 -15 5 -6 7 7 10 15 7 18 -3 3 -9 -2 -12 -12z"/>
<path d="M5381 2986 c12 -13 66 -24 80 -15 10 6 4 9 -18 9 -17 0 -40 3 -50 7
-10 3 -15 3 -12 -1z"/>
<path d="M5150 2949 c0 -8 79 -24 85 -17 2 2 -16 8 -40 14 -25 6 -45 7 -45 3z"/>
<path d="M5652 2934 c-7 -8 -8 -14 -3 -14 10 0 25 19 20 25 -2 1 -10 -3 -17
-11z"/>
<path d="M5275 2910 c3 -5 14 -10 23 -10 15 0 15 2 2 10 -20 13 -33 13 -25 0z"/>
<path d="M5590 2916 c0 -2 7 -7 16 -10 8 -3 12 -2 9 4 -6 10 -25 14 -25 6z"/>
<path d="M5365 2880 c11 -5 27 -9 35 -9 9 0 8 4 -5 9 -11 5 -27 9 -35 9 -9 0
-8 -4 5 -9z"/>
<path d="M5278 2833 c7 -3 16 -2 19 1 4 3 -2 6 -13 5 -11 0 -14 -3 -6 -6z"/>
<path d="M5456 2683 c-6 -14 -5 -15 5 -6 7 7 10 15 7 18 -3 3 -9 -2 -12 -12z"/>
<path d="M5363 2675 c-3 -9 -3 -18 -1 -21 3 -3 8 4 11 16 6 23 -1 27 -10 5z"/>
<path d="M5387 2631 c-3 -12 -1 -21 3 -21 14 0 19 15 11 29 -6 9 -10 7 -14 -8z"/>
<path d="M5073 2603 c-41 -8 -39 -67 3 -71 22 -2 24 2 24 38 0 22 -1 39 -2 39
-2 -1 -13 -4 -25 -6z"/>
<path d="M5338 2581 c-26 -15 -46 -41 -30 -41 9 1 65 50 61 54 -2 1 -16 -4
-31 -13z"/>
<path d="M5064 2502 c-19 -10 -23 -18 -18 -35 12 -41 23 -41 59 -4 31 32 39
36 56 26 16 -8 25 -7 40 7 10 9 17 20 14 22 -3 3 -12 -3 -20 -14 -13 -17 -17
-17 -27 -4 -16 19 -70 20 -104 2z"/>
<path d="M5419 2503 c-13 -16 -12 -17 4 -4 16 13 21 21 13 21 -2 0 -10 -8 -17
-17z"/>
<path d="M5340 2440 c-9 -6 -10 -10 -3 -10 6 0 15 5 18 10 8 12 4 12 -15 0z"/>
<path d="M5245 2329 c-4 -6 -5 -12 -2 -15 2 -3 7 2 10 11 7 17 1 20 -8 4z"/>
<path d="M5196 2291 c-17 -19 -17 -19 3 -14 12 3 21 12 21 19 0 18 -4 18 -24
-5z"/>
<path d="M5131 2260 c-13 -11 -19 -20 -13 -20 10 0 42 27 42 36 0 7 -4 5 -29
-16z"/>
<path d="M5190 2250 l-35 -7 32 -2 c17 0 35 4 38 9 3 6 5 9 3 9 -2 -1 -19 -5
-38 -9z"/>
<path d="M2225 430 c3 -5 8 -10 11 -10 2 0 4 5 4 10 0 6 -5 10 -11 10 -5 0 -7
-4 -4 -10z"/>
<path d="M5868 413 c7 -3 16 -2 19 1 4 3 -2 6 -13 5 -11 0 -14 -3 -6 -6z"/>
<path d="M5485 320 c-13 -6 -15 -9 -5 -9 8 0 22 4 30 9 18 12 2 12 -25 0z"/>
<path d="M5367 283 c-15 -2 -25 -8 -22 -13 5 -8 62 3 73 15 6 5 -4 5 -51 -2z"/>
<path d="M5250 270 c0 -5 4 -10 9 -10 6 0 13 5 16 10 3 6 -1 10 -9 10 -9 0
-16 -4 -16 -10z"/>
<path d="M5295 250 c-3 -5 -1 -10 4 -10 6 0 11 5 11 10 0 6 -2 10 -4 10 -3 0
-8 -4 -11 -10z"/>
<path d="M5210 224 l-45 -13 45 5 c25 3 49 10 55 15 12 12 1 10 -55 -7z"/>
<path d="M5128 223 c6 -2 18 -2 25 0 6 3 1 5 -13 5 -14 0 -19 -2 -12 -5z"/>
</g>
</svg>
